<mxfile host="app.diagrams.net" modified="2024-06-19T03:40:20.187Z" agent="Mozilla/5.0 (Macintosh; Intel Mac OS X 10_15_7) AppleWebKit/537.36 (KHTML, like Gecko) Chrome/126.0.0.0 Safari/537.36" etag="cf3hP1lHqE1KK6-27bEs" version="24.2.5" type="github">
  <diagram id="6a731a19-8d31-9384-78a2-239565b7b9f0" name="Page-1">
    <mxGraphModel dx="2074" dy="3368" grid="1" gridSize="10" guides="1" tooltips="1" connect="1" arrows="1" fold="1" page="1" pageScale="1" pageWidth="3300" pageHeight="2339" background="none" math="0" shadow="0">
      <root>
        <mxCell id="0" />
        <mxCell id="1" parent="0" />
        <mxCell id="45" value="" style="edgeStyle=elbowEdgeStyle;elbow=horizontal;exitX=1;exitY=0.5;exitPerimeter=0;entryX=0.905;entryY=0.5;entryPerimeter=0;fontStyle=1;strokeColor=#003366;strokeWidth=1;html=1;" parent="1" edge="1">
          <mxGeometry width="100" height="100" as="geometry">
            <mxPoint x="380.5" y="1119.25" as="sourcePoint" />
            <mxPoint x="100" as="targetPoint" />
            <Array as="points">
              <mxPoint x="950" y="1320" />
            </Array>
          </mxGeometry>
        </mxCell>
        <mxCell id="kc9Lgn3Jw319GaUdUAyX-60" value="" style="edgeStyle=orthogonalEdgeStyle;rounded=0;orthogonalLoop=1;jettySize=auto;html=1;strokeWidth=2;fontSize=14;" parent="1" source="kc9Lgn3Jw319GaUdUAyX-56" target="kc9Lgn3Jw319GaUdUAyX-59" edge="1">
          <mxGeometry relative="1" as="geometry">
            <Array as="points">
              <mxPoint x="1510" y="1090" />
              <mxPoint x="1510" y="1090" />
            </Array>
          </mxGeometry>
        </mxCell>
        <mxCell id="kc9Lgn3Jw319GaUdUAyX-56" value="变电站微调" style="rounded=0;whiteSpace=wrap;html=1;fontSize=14;" parent="1" vertex="1">
          <mxGeometry x="1450" y="1010" width="120" height="60" as="geometry" />
        </mxCell>
        <mxCell id="kc9Lgn3Jw319GaUdUAyX-62" value="" style="edgeStyle=orthogonalEdgeStyle;rounded=0;orthogonalLoop=1;jettySize=auto;html=1;strokeWidth=2;fontSize=14;" parent="1" source="kc9Lgn3Jw319GaUdUAyX-59" target="kc9Lgn3Jw319GaUdUAyX-61" edge="1">
          <mxGeometry relative="1" as="geometry">
            <Array as="points">
              <mxPoint x="1600" y="1195" />
              <mxPoint x="1600" y="1195" />
            </Array>
          </mxGeometry>
        </mxCell>
        <mxCell id="kc9Lgn3Jw319GaUdUAyX-65" value="" style="edgeStyle=orthogonalEdgeStyle;rounded=0;orthogonalLoop=1;jettySize=auto;html=1;strokeWidth=2;fontSize=14;" parent="1" source="kc9Lgn3Jw319GaUdUAyX-59" target="kc9Lgn3Jw319GaUdUAyX-64" edge="1">
          <mxGeometry relative="1" as="geometry">
            <Array as="points">
              <mxPoint x="1510" y="1270" />
              <mxPoint x="1510" y="1270" />
            </Array>
          </mxGeometry>
        </mxCell>
        <mxCell id="kc9Lgn3Jw319GaUdUAyX-59" value="判断是否为多层布局" style="rhombus;whiteSpace=wrap;html=1;rounded=0;fontSize=14;" parent="1" vertex="1">
          <mxGeometry x="1440" y="1140" width="140" height="110" as="geometry" />
        </mxCell>
        <mxCell id="kc9Lgn3Jw319GaUdUAyX-71" value="" style="edgeStyle=orthogonalEdgeStyle;rounded=0;orthogonalLoop=1;jettySize=auto;html=1;strokeWidth=2;fontSize=14;" parent="1" source="kc9Lgn3Jw319GaUdUAyX-61" target="kc9Lgn3Jw319GaUdUAyX-70" edge="1">
          <mxGeometry relative="1" as="geometry" />
        </mxCell>
        <mxCell id="kc9Lgn3Jw319GaUdUAyX-61" value="计算偏移" style="whiteSpace=wrap;html=1;rounded=0;fontSize=14;" parent="1" vertex="1">
          <mxGeometry x="1780" y="1165" width="120" height="60" as="geometry" />
        </mxCell>
        <mxCell id="kc9Lgn3Jw319GaUdUAyX-63" value="是" style="text;html=1;align=center;verticalAlign=middle;resizable=0;points=[];autosize=1;strokeColor=none;fillColor=none;fontSize=14;" parent="1" vertex="1">
          <mxGeometry x="1600" y="1168" width="40" height="30" as="geometry" />
        </mxCell>
        <mxCell id="kc9Lgn3Jw319GaUdUAyX-93" style="edgeStyle=orthogonalEdgeStyle;rounded=0;orthogonalLoop=1;jettySize=auto;html=1;exitX=0.5;exitY=1;exitDx=0;exitDy=0;entryX=0.5;entryY=0;entryDx=0;entryDy=0;strokeWidth=2;fontSize=14;" parent="1" source="kc9Lgn3Jw319GaUdUAyX-64" target="kc9Lgn3Jw319GaUdUAyX-91" edge="1">
          <mxGeometry relative="1" as="geometry">
            <Array as="points">
              <mxPoint x="1510" y="1450" />
              <mxPoint x="1510" y="1450" />
            </Array>
          </mxGeometry>
        </mxCell>
        <mxCell id="kc9Lgn3Jw319GaUdUAyX-64" value="获取外侧变电站" style="whiteSpace=wrap;html=1;rounded=0;fontSize=14;" parent="1" vertex="1">
          <mxGeometry x="1450" y="1300" width="120" height="60" as="geometry" />
        </mxCell>
        <mxCell id="kc9Lgn3Jw319GaUdUAyX-66" value="否" style="text;html=1;align=center;verticalAlign=middle;resizable=0;points=[];autosize=1;strokeColor=none;fillColor=none;fontSize=14;" parent="1" vertex="1">
          <mxGeometry x="1500" y="1250" width="40" height="30" as="geometry" />
        </mxCell>
        <mxCell id="kc9Lgn3Jw319GaUdUAyX-81" value="" style="edgeStyle=orthogonalEdgeStyle;rounded=0;orthogonalLoop=1;jettySize=auto;html=1;strokeWidth=2;fontSize=14;" parent="1" source="kc9Lgn3Jw319GaUdUAyX-70" target="kc9Lgn3Jw319GaUdUAyX-80" edge="1">
          <mxGeometry relative="1" as="geometry" />
        </mxCell>
        <mxCell id="kc9Lgn3Jw319GaUdUAyX-87" style="edgeStyle=orthogonalEdgeStyle;rounded=0;orthogonalLoop=1;jettySize=auto;html=1;exitX=1;exitY=0.5;exitDx=0;exitDy=0;entryX=0;entryY=0.5;entryDx=0;entryDy=0;strokeWidth=2;fontSize=14;" parent="1" source="kc9Lgn3Jw319GaUdUAyX-70" target="kc9Lgn3Jw319GaUdUAyX-86" edge="1">
          <mxGeometry relative="1" as="geometry" />
        </mxCell>
        <mxCell id="kc9Lgn3Jw319GaUdUAyX-70" value="遍历所有变电站&lt;br style=&quot;font-size: 14px;&quot;&gt;是否结束" style="rhombus;whiteSpace=wrap;html=1;rounded=0;fontSize=14;" parent="1" vertex="1">
          <mxGeometry x="1780" y="1400" width="120" height="100" as="geometry" />
        </mxCell>
        <mxCell id="kc9Lgn3Jw319GaUdUAyX-77" value="" style="edgeStyle=orthogonalEdgeStyle;rounded=0;orthogonalLoop=1;jettySize=auto;html=1;strokeWidth=2;fontSize=14;" parent="1" source="kc9Lgn3Jw319GaUdUAyX-74" target="kc9Lgn3Jw319GaUdUAyX-76" edge="1">
          <mxGeometry relative="1" as="geometry" />
        </mxCell>
        <mxCell id="kc9Lgn3Jw319GaUdUAyX-74" value="重置变电站坐标并记录相关数据" style="whiteSpace=wrap;html=1;rounded=0;fontSize=14;" parent="1" vertex="1">
          <mxGeometry x="2180" y="1420" width="120" height="60" as="geometry" />
        </mxCell>
        <mxCell id="kc9Lgn3Jw319GaUdUAyX-90" style="edgeStyle=orthogonalEdgeStyle;rounded=0;orthogonalLoop=1;jettySize=auto;html=1;exitX=0;exitY=0.5;exitDx=0;exitDy=0;entryX=0.5;entryY=0;entryDx=0;entryDy=0;strokeWidth=2;fontSize=14;" parent="1" source="kc9Lgn3Jw319GaUdUAyX-76" target="kc9Lgn3Jw319GaUdUAyX-70" edge="1">
          <mxGeometry relative="1" as="geometry" />
        </mxCell>
        <mxCell id="kc9Lgn3Jw319GaUdUAyX-76" value="重置变电站组中其他元素坐标以及线路坐标" style="whiteSpace=wrap;html=1;rounded=0;fontSize=14;" parent="1" vertex="1">
          <mxGeometry x="2180" y="1250" width="120" height="60" as="geometry" />
        </mxCell>
        <mxCell id="kc9Lgn3Jw319GaUdUAyX-79" value="否" style="text;html=1;align=center;verticalAlign=middle;resizable=0;points=[];autosize=1;strokeColor=none;fillColor=none;fontSize=14;" parent="1" vertex="1">
          <mxGeometry x="1910" y="1420" width="40" height="30" as="geometry" />
        </mxCell>
        <mxCell id="kc9Lgn3Jw319GaUdUAyX-80" value="结束" style="whiteSpace=wrap;html=1;rounded=0;fontSize=14;" parent="1" vertex="1">
          <mxGeometry x="1780" y="1570" width="120" height="60" as="geometry" />
        </mxCell>
        <mxCell id="kc9Lgn3Jw319GaUdUAyX-82" value="是" style="text;html=1;align=center;verticalAlign=middle;resizable=0;points=[];autosize=1;strokeColor=none;fillColor=none;fontSize=14;" parent="1" vertex="1">
          <mxGeometry x="1840" y="1500" width="40" height="30" as="geometry" />
        </mxCell>
        <mxCell id="kc9Lgn3Jw319GaUdUAyX-89" style="edgeStyle=orthogonalEdgeStyle;rounded=0;orthogonalLoop=1;jettySize=auto;html=1;exitX=1;exitY=0.5;exitDx=0;exitDy=0;entryX=0;entryY=0.5;entryDx=0;entryDy=0;strokeWidth=2;fontSize=14;" parent="1" source="kc9Lgn3Jw319GaUdUAyX-86" target="kc9Lgn3Jw319GaUdUAyX-74" edge="1">
          <mxGeometry relative="1" as="geometry" />
        </mxCell>
        <mxCell id="kc9Lgn3Jw319GaUdUAyX-86" value="计算变电站位置" style="whiteSpace=wrap;html=1;rounded=0;fontSize=14;" parent="1" vertex="1">
          <mxGeometry x="1980" y="1420" width="120" height="60" as="geometry" />
        </mxCell>
        <mxCell id="kc9Lgn3Jw319GaUdUAyX-94" style="edgeStyle=orthogonalEdgeStyle;rounded=0;orthogonalLoop=1;jettySize=auto;html=1;exitX=0.5;exitY=1;exitDx=0;exitDy=0;entryX=0.5;entryY=0;entryDx=0;entryDy=0;strokeWidth=2;fontSize=14;" parent="1" source="kc9Lgn3Jw319GaUdUAyX-91" target="kc9Lgn3Jw319GaUdUAyX-92" edge="1">
          <mxGeometry relative="1" as="geometry" />
        </mxCell>
        <mxCell id="kc9Lgn3Jw319GaUdUAyX-91" value="重置变电站坐标并记录相关数据" style="whiteSpace=wrap;html=1;rounded=0;fontSize=14;" parent="1" vertex="1">
          <mxGeometry x="1450" y="1440" width="120" height="60" as="geometry" />
        </mxCell>
        <mxCell id="kc9Lgn3Jw319GaUdUAyX-101" style="edgeStyle=orthogonalEdgeStyle;shape=connector;rounded=0;orthogonalLoop=1;jettySize=auto;html=1;exitX=1;exitY=0.5;exitDx=0;exitDy=0;entryX=0;entryY=0.5;entryDx=0;entryDy=0;labelBackgroundColor=default;strokeColor=default;strokeWidth=2;fontFamily=Helvetica;fontSize=14;fontColor=default;endArrow=classic;" parent="1" source="kc9Lgn3Jw319GaUdUAyX-92" target="kc9Lgn3Jw319GaUdUAyX-80" edge="1">
          <mxGeometry relative="1" as="geometry" />
        </mxCell>
        <mxCell id="kc9Lgn3Jw319GaUdUAyX-92" value="重置变电站组中其他元素坐标以及线路坐标" style="whiteSpace=wrap;html=1;rounded=0;fontSize=14;" parent="1" vertex="1">
          <mxGeometry x="1450" y="1570" width="120" height="60" as="geometry" />
        </mxCell>
        <mxCell id="kc9Lgn3Jw319GaUdUAyX-98" style="edgeStyle=orthogonalEdgeStyle;rounded=0;orthogonalLoop=1;jettySize=auto;html=1;exitX=0.5;exitY=1;exitDx=0;exitDy=0;entryX=0.5;entryY=0;entryDx=0;entryDy=0;strokeWidth=2;fontSize=14;" parent="1" source="kc9Lgn3Jw319GaUdUAyX-96" target="kc9Lgn3Jw319GaUdUAyX-97" edge="1">
          <mxGeometry relative="1" as="geometry" />
        </mxCell>
        <mxCell id="kc9Lgn3Jw319GaUdUAyX-96" value="联络开关微调" style="rounded=0;whiteSpace=wrap;html=1;fontSize=14;" parent="1" vertex="1">
          <mxGeometry x="1790" y="260" width="120" height="60" as="geometry" />
        </mxCell>
        <mxCell id="kc9Lgn3Jw319GaUdUAyX-100" value="" style="edgeStyle=orthogonalEdgeStyle;shape=connector;rounded=0;orthogonalLoop=1;jettySize=auto;html=1;labelBackgroundColor=default;strokeColor=default;strokeWidth=2;fontFamily=Helvetica;fontSize=14;fontColor=default;endArrow=classic;" parent="1" source="kc9Lgn3Jw319GaUdUAyX-97" target="kc9Lgn3Jw319GaUdUAyX-99" edge="1">
          <mxGeometry relative="1" as="geometry" />
        </mxCell>
        <mxCell id="kc9Lgn3Jw319GaUdUAyX-116" style="edgeStyle=orthogonalEdgeStyle;shape=connector;rounded=0;orthogonalLoop=1;jettySize=auto;html=1;exitX=1;exitY=0.5;exitDx=0;exitDy=0;entryX=0;entryY=0.5;entryDx=0;entryDy=0;labelBackgroundColor=default;strokeColor=default;strokeWidth=2;fontFamily=Helvetica;fontSize=14;fontColor=default;endArrow=classic;" parent="1" source="kc9Lgn3Jw319GaUdUAyX-97" target="kc9Lgn3Jw319GaUdUAyX-113" edge="1">
          <mxGeometry relative="1" as="geometry" />
        </mxCell>
        <mxCell id="kc9Lgn3Jw319GaUdUAyX-97" value="判断是否为多层布局" style="rhombus;whiteSpace=wrap;html=1;rounded=0;fontSize=14;" parent="1" vertex="1">
          <mxGeometry x="1780" y="348.75" width="140" height="110" as="geometry" />
        </mxCell>
        <mxCell id="kc9Lgn3Jw319GaUdUAyX-104" value="" style="edgeStyle=orthogonalEdgeStyle;shape=connector;rounded=0;orthogonalLoop=1;jettySize=auto;html=1;labelBackgroundColor=default;strokeColor=default;strokeWidth=2;fontFamily=Helvetica;fontSize=14;fontColor=default;endArrow=classic;" parent="1" source="kc9Lgn3Jw319GaUdUAyX-99" target="kc9Lgn3Jw319GaUdUAyX-103" edge="1">
          <mxGeometry relative="1" as="geometry" />
        </mxCell>
        <mxCell id="kc9Lgn3Jw319GaUdUAyX-99" value="根据联络关系进行分组排序，分成上外层、上内层、下内层、下外层、左侧同侧层、左侧乱层、右侧同侧层、右侧乱层" style="whiteSpace=wrap;html=1;rounded=0;fontSize=14;" parent="1" vertex="1">
          <mxGeometry x="1500" y="360" width="180" height="87.5" as="geometry" />
        </mxCell>
        <mxCell id="kc9Lgn3Jw319GaUdUAyX-106" value="" style="edgeStyle=orthogonalEdgeStyle;shape=connector;rounded=0;orthogonalLoop=1;jettySize=auto;html=1;labelBackgroundColor=default;strokeColor=default;strokeWidth=2;fontFamily=Helvetica;fontSize=14;fontColor=default;endArrow=classic;" parent="1" source="kc9Lgn3Jw319GaUdUAyX-103" target="kc9Lgn3Jw319GaUdUAyX-105" edge="1">
          <mxGeometry relative="1" as="geometry" />
        </mxCell>
        <mxCell id="kc9Lgn3Jw319GaUdUAyX-103" value="根据上下不同层和左右不同侧分别进行处理" style="whiteSpace=wrap;html=1;rounded=0;fontSize=14;" parent="1" vertex="1">
          <mxGeometry x="1530" y="490" width="120" height="60" as="geometry" />
        </mxCell>
        <mxCell id="kc9Lgn3Jw319GaUdUAyX-108" value="" style="edgeStyle=orthogonalEdgeStyle;shape=connector;rounded=0;orthogonalLoop=1;jettySize=auto;html=1;labelBackgroundColor=default;strokeColor=default;strokeWidth=2;fontFamily=Helvetica;fontSize=14;fontColor=default;endArrow=classic;" parent="1" source="kc9Lgn3Jw319GaUdUAyX-105" target="kc9Lgn3Jw319GaUdUAyX-107" edge="1">
          <mxGeometry relative="1" as="geometry" />
        </mxCell>
        <mxCell id="kc9Lgn3Jw319GaUdUAyX-105" value="计算得出offset、x、y、width" style="whiteSpace=wrap;html=1;rounded=0;fontSize=14;" parent="1" vertex="1">
          <mxGeometry x="1550" y="600" width="80" height="50" as="geometry" />
        </mxCell>
        <mxCell id="kc9Lgn3Jw319GaUdUAyX-110" value="" style="edgeStyle=orthogonalEdgeStyle;shape=connector;rounded=0;orthogonalLoop=1;jettySize=auto;html=1;labelBackgroundColor=default;strokeColor=default;strokeWidth=2;fontFamily=Helvetica;fontSize=14;fontColor=default;endArrow=classic;" parent="1" source="kc9Lgn3Jw319GaUdUAyX-107" edge="1">
          <mxGeometry relative="1" as="geometry">
            <mxPoint x="1850" y="700" as="targetPoint" />
          </mxGeometry>
        </mxCell>
        <mxCell id="kc9Lgn3Jw319GaUdUAyX-107" value="重置联络开关坐标并记录相关数据" style="whiteSpace=wrap;html=1;rounded=0;fontSize=14;" parent="1" vertex="1">
          <mxGeometry x="1790" y="595" width="120" height="60" as="geometry" />
        </mxCell>
        <mxCell id="kc9Lgn3Jw319GaUdUAyX-111" value="结束" style="whiteSpace=wrap;html=1;rounded=0;fontSize=14;" parent="1" vertex="1">
          <mxGeometry x="1790" y="700" width="120" height="60" as="geometry" />
        </mxCell>
        <mxCell id="kc9Lgn3Jw319GaUdUAyX-119" style="edgeStyle=orthogonalEdgeStyle;shape=connector;rounded=0;orthogonalLoop=1;jettySize=auto;html=1;exitX=0.5;exitY=1;exitDx=0;exitDy=0;entryX=1;entryY=0.5;entryDx=0;entryDy=0;labelBackgroundColor=default;strokeColor=default;strokeWidth=2;fontFamily=Helvetica;fontSize=14;fontColor=default;endArrow=classic;" parent="1" source="kc9Lgn3Jw319GaUdUAyX-113" target="kc9Lgn3Jw319GaUdUAyX-107" edge="1">
          <mxGeometry relative="1" as="geometry" />
        </mxCell>
        <mxCell id="kc9Lgn3Jw319GaUdUAyX-113" value="根据上下位置间距进行微调" style="whiteSpace=wrap;html=1;rounded=0;fontSize=14;" parent="1" vertex="1">
          <mxGeometry x="2060" y="373.75" width="120" height="60" as="geometry" />
        </mxCell>
        <mxCell id="kc9Lgn3Jw319GaUdUAyX-117" value="否" style="text;html=1;align=center;verticalAlign=middle;resizable=0;points=[];autosize=1;strokeColor=none;fillColor=none;fontSize=14;fontFamily=Helvetica;fontColor=default;" parent="1" vertex="1">
          <mxGeometry x="1920" y="380" width="40" height="30" as="geometry" />
        </mxCell>
        <mxCell id="kc9Lgn3Jw319GaUdUAyX-118" value="是" style="text;html=1;align=center;verticalAlign=middle;resizable=0;points=[];autosize=1;strokeColor=none;fillColor=none;fontSize=14;fontFamily=Helvetica;fontColor=default;" parent="1" vertex="1">
          <mxGeometry x="1740" y="380" width="40" height="30" as="geometry" />
        </mxCell>
        <mxCell id="kc9Lgn3Jw319GaUdUAyX-121" value="" style="endArrow=none;dashed=1;html=1;rounded=0;labelBackgroundColor=default;strokeColor=default;strokeWidth=2;fontFamily=Helvetica;fontSize=11;fontColor=default;shape=connector;" parent="1" edge="1">
          <mxGeometry width="50" height="50" relative="1" as="geometry">
            <mxPoint x="1390" y="220" as="sourcePoint" />
            <mxPoint x="1390" y="220" as="targetPoint" />
            <Array as="points">
              <mxPoint x="1390" y="830" />
              <mxPoint x="1840" y="830" />
              <mxPoint x="2310" y="830" />
              <mxPoint x="2310" y="220" />
            </Array>
          </mxGeometry>
        </mxCell>
        <mxCell id="kc9Lgn3Jw319GaUdUAyX-122" value="" style="shape=flexArrow;endArrow=classic;html=1;rounded=0;labelBackgroundColor=default;strokeColor=default;strokeWidth=2;fontFamily=Helvetica;fontSize=11;fontColor=default;" parent="1" edge="1">
          <mxGeometry width="50" height="50" relative="1" as="geometry">
            <mxPoint x="1859.29" y="860" as="sourcePoint" />
            <mxPoint x="1859.29" y="970" as="targetPoint" />
          </mxGeometry>
        </mxCell>
        <mxCell id="kc9Lgn3Jw319GaUdUAyX-123" value="" style="endArrow=none;dashed=1;html=1;rounded=0;labelBackgroundColor=default;strokeColor=default;strokeWidth=2;fontFamily=Helvetica;fontSize=11;fontColor=default;shape=connector;" parent="1" edge="1">
          <mxGeometry width="50" height="50" relative="1" as="geometry">
            <mxPoint x="1400" y="990" as="sourcePoint" />
            <mxPoint x="1400" y="990" as="targetPoint" />
            <Array as="points">
              <mxPoint x="1400" y="1680" />
              <mxPoint x="2320" y="1680" />
              <mxPoint x="2320" y="1350" />
              <mxPoint x="2320" y="990" />
            </Array>
          </mxGeometry>
        </mxCell>
      </root>
    </mxGraphModel>
  </diagram>
</mxfile>
